<svg xmlns="http://www.w3.org/2000/svg" viewBox="0 0 287.18 287.19"><defs><style>.cls-1{fill:#fff;}</style></defs><title>Asset 11</title><g id="Layer_2" data-name="Layer 2"><g id="Layer_3" data-name="Layer 3"><polygon class="cls-1" points="287.18 219.39 272.02 226.54 248.6 237.6 143.59 287.19 113.25 272.87 23.4 230.44 23.4 230.43 0 219.39 23.16 201.69 25.89 202.98 34.45 207.02 128.23 251.28 143.61 258.54 237.58 214.22 237.6 214.21 237.6 214.21 130.4 132.24 122.24 126 104.51 112.44 93.19 103.79 71.84 87.47 25.89 52.33 25.89 122.57 0 142.36 0 0 25.89 19.78 93.17 71.18 130.4 99.62 143.59 109.7 287.18 219.39"/><polygon class="cls-1" points="287.18 0 287.18 199.18 279.32 193.18 261.28 179.41 261.28 52.41 234.27 73.05 232.93 74.08 213.69 88.77 178.15 115.93 156.77 99.62 261.28 19.78 287.18 0"/></g></g></svg>